<?xml version="1.0" standalone="no"?>
<!DOCTYPE svg PUBLIC "-//W3C//DTD SVG 20010904//EN"
 "http://www.w3.org/TR/2001/REC-SVG-20010904/DTD/svg10.dtd">
<svg version="1.0" xmlns="http://www.w3.org/2000/svg"
 width="500.000000pt" height="100.000000pt" viewBox="0 0 500.000000 100.000000"
 preserveAspectRatio="xMidYMid meet">

<g transform="translate(0.000000,100.000000) scale(0.100000,-0.100000)"
fill="#000000" stroke="none">
<path d="M1515 986 c-116 -38 -199 -110 -249 -216 -39 -84 -48 -217 -21 -301
24 -73 101 -150 173 -173 58 -20 213 -20 230 -1 6 6 13 44 17 87 l7 76 -43 -9
c-117 -27 -199 36 -199 152 0 76 19 128 65 175 49 51 101 68 171 55 27 -5 50
-9 50 -8 6 7 22 163 18 167 -12 12 -181 9 -219 -4z"/>
<path d="M6 958 c-12 -47 -7 -63 24 -75 16 -6 32 -17 35 -25 3 -8 -10 -137
-28 -287 -27 -223 -31 -274 -20 -278 24 -9 316 4 355 16 91 28 168 122 168
204 0 47 -30 99 -66 116 l-27 12 42 35 c52 45 71 81 71 137 0 59 -32 106 -95
137 -48 24 -60 25 -251 28 l-201 3 -7 -23z m347 -136 c9 -8 17 -26 17 -39 0
-31 -42 -73 -74 -73 -13 0 -32 -3 -41 -7 -14 -5 -16 -1 -12 23 3 16 9 51 12
77 l6 48 37 -7 c20 -4 45 -13 55 -22z m-25 -268 c31 -21 29 -67 -3 -92 -24
-19 -101 -39 -111 -29 -3 2 -2 34 2 71 l7 66 41 0 c23 0 52 -7 64 -16z"/>
<path d="M650 978 c-10 -51 -84 -681 -81 -684 2 -2 78 -4 167 -4 l163 0 6 58
c14 115 19 106 -60 112 l-71 5 29 233 c35 288 36 282 -78 282 -41 0 -75 -1
-75 -2z"/>
<path d="M1030 972 c0 -4 -18 -154 -40 -332 -22 -178 -40 -330 -40 -337 0 -18
179 -18 185 0 2 6 20 145 40 307 19 162 38 312 41 333 l6 37 -96 0 c-53 0 -96
-4 -96 -8z"/>
<path d="M1786 943 c-11 -66 -76 -613 -76 -634 0 -19 6 -20 93 -17 l92 3 14
115 c12 99 12 118 -1 140 l-14 25 95 -3 c53 -2 97 -5 97 -5 1 -1 -6 -62 -15
-135 -10 -73 -15 -135 -12 -137 2 -3 44 -5 92 -5 l88 0 6 33 c10 60 75 607 75
632 0 25 -1 25 -89 25 -104 0 -94 13 -112 -142 l-12 -108 -78 0 c-62 0 -79 3
-79 14 0 16 17 152 26 204 l5 32 -95 0 -94 0 -6 -37z"/>
<path d="M2381 653 c-45 -181 -84 -336 -87 -345 -5 -16 4 -18 85 -18 50 0 91
2 91 4 0 5 88 394 96 426 7 24 21 -64 54 -333 l12 -98 65 3 65 3 79 219 c44
121 82 222 84 225 3 2 2 -98 -2 -222 l-6 -227 161 0 162 0 16 37 c8 21 13 52
11 68 l-5 30 108 -3 108 -3 9 -62 8 -62 167 -3 166 -2 6 27 c3 16 13 93 22
173 9 80 19 153 23 162 4 11 32 -47 82 -170 l76 -187 114 0 113 0 37 305 c21
168 40 322 42 343 l5 37 -94 0 c-52 0 -94 -3 -94 -7 0 -31 -50 -416 -54 -421
-4 -3 -6 0 -6 6 0 7 -41 104 -91 217 l-91 205 -92 0 -91 0 -29 -246 c-16 -136
-32 -261 -36 -278 -6 -29 -7 -28 -14 19 -4 28 -28 151 -52 275 -24 124 -44
226 -44 228 0 1 -48 1 -107 0 l-106 -3 -116 -267 c-64 -147 -120 -270 -124
-274 -4 -4 -7 117 -7 269 l0 277 -123 0 -123 0 -62 -182 c-34 -101 -62 -175
-62 -165 0 28 -20 256 -26 305 l-5 42 -118 0 -119 0 -81 -327z m1062 15 l7
-88 -45 0 c-25 0 -45 3 -45 8 0 4 14 47 30 96 17 49 30 96 31 105 2 37 16 -41
22 -121z"/>
<path d="M4395 948 c-10 -60 -75 -608 -75 -634 0 -25 0 -25 87 -22 l88 3 22
175 c12 96 22 184 23 195 0 11 37 -69 82 -177 l81 -198 108 0 c59 0 110 3 112
8 3 4 22 150 43 324 37 310 38 317 19 337 -15 18 -30 21 -90 21 l-71 0 -22
-192 c-13 -106 -22 -204 -22 -217 0 -13 -3 -21 -6 -18 -4 4 -48 100 -99 214
l-92 208 -91 3 -91 3 -6 -33z"/>
<path d="M2020 143 c-6 -32 -15 -77 -19 -100 l-9 -43 53 0 c39 0 54 4 59 16 9
23 8 24 -24 24 -23 0 -30 5 -30 19 0 13 8 21 22 23 31 4 37 38 8 38 -16 0 -20
4 -16 16 3 9 6 18 6 20 0 2 13 4 29 4 27 0 47 20 34 34 -4 3 -28 6 -54 6 l-48
0 -11 -57z"/>
<path d="M2256 178 c-3 -13 -10 -50 -16 -83 -6 -33 -14 -68 -17 -78 -4 -15 0
-18 18 -15 18 2 25 13 35 53 6 28 12 43 13 35 1 -8 6 -32 12 -52 8 -30 15 -38
33 -38 21 0 24 7 34 67 6 38 14 83 18 101 6 28 4 32 -14 32 -20 0 -32 -24 -32
-68 0 -36 -17 -17 -24 28 -5 34 -10 40 -31 40 -17 0 -26 -7 -29 -22z"/>
<path d="M2553 190 c-28 -11 -49 -52 -58 -111 -8 -54 9 -79 56 -79 55 0 72 17
89 88 8 32 8 32 -31 32 -32 0 -39 -4 -39 -19 0 -11 5 -21 12 -23 19 -7 0 -38
-23 -38 -20 0 -21 4 -17 45 7 57 22 75 65 75 27 0 34 4 31 18 -4 20 -50 26
-85 12z"/>
<path d="M2785 188 c-2 -7 -9 -42 -15 -78 -6 -36 -14 -75 -17 -87 -4 -19 -1
-23 19 -23 23 0 26 5 36 67 6 38 14 83 18 101 6 28 4 32 -15 32 -12 0 -24 -6
-26 -12z"/>
<path d="M2956 178 c-3 -13 -10 -50 -16 -83 -6 -33 -14 -68 -17 -78 -4 -15 0
-18 19 -15 19 2 25 12 32 53 l10 50 11 -50 c9 -43 15 -50 36 -53 25 -3 26 0
37 65 6 37 14 83 18 101 6 28 4 32 -14 32 -20 0 -32 -24 -32 -68 0 -36 -17
-16 -25 28 -6 34 -11 40 -31 40 -16 0 -25 -7 -28 -22z"/>
<path d="M3215 188 c-2 -7 -9 -44 -15 -83 -7 -38 -14 -78 -17 -87 -4 -16 3
-18 51 -18 49 0 56 2 56 20 0 15 -7 20 -29 20 -24 0 -28 3 -24 20 3 11 14 20
24 20 11 0 19 2 19 4 0 2 3 11 6 20 4 12 0 16 -16 16 -36 0 -21 34 18 38 24 2
32 8 32 23 0 16 -7 19 -50 19 -32 0 -52 -5 -55 -12z"/>
<path d="M3445 188 c-2 -7 -9 -42 -15 -78 -6 -36 -14 -75 -17 -87 -5 -22 -2
-23 51 -23 49 0 56 2 56 20 0 16 -7 20 -31 20 -24 0 -30 3 -25 16 3 9 6 18 6
20 0 2 8 4 19 4 10 0 21 9 24 20 4 15 0 20 -15 20 -35 0 -17 35 20 38 24 2 32
8 32 23 0 16 -7 19 -50 19 -32 0 -52 -5 -55 -12z"/>
<path d="M3675 188 c-4 -12 -35 -175 -35 -184 0 -2 9 -4 20 -4 21 0 24 4 35
54 5 22 9 26 15 16 5 -8 6 -18 4 -22 -11 -18 8 -48 30 -48 21 0 22 3 16 45 -5
31 -3 46 5 49 7 2 17 18 23 36 10 26 8 34 -8 50 -23 23 -98 28 -105 8z m73
-45 c-5 -26 -38 -29 -38 -4 0 15 6 21 21 21 14 0 19 -5 17 -17z"/>
<path d="M3925 188 c-4 -12 -35 -175 -35 -185 0 -2 10 -3 22 -1 19 3 25 14 40
88 22 109 22 110 -2 110 -11 0 -23 -6 -25 -12z"/>
<path d="M4096 188 c-3 -7 -10 -44 -16 -83 -7 -38 -14 -78 -17 -87 -3 -13 1
-18 17 -18 22 0 25 4 36 65 l7 40 11 -50 c10 -43 14 -50 36 -50 22 0 25 6 36
60 27 137 27 135 6 135 -22 0 -32 -18 -32 -61 0 -43 -15 -35 -26 14 -7 32 -14
43 -32 45 -12 2 -24 -3 -26 -10z"/>
<path d="M4400 193 c-32 -12 -50 -37 -61 -89 -17 -74 -3 -104 46 -104 49 0 71
13 84 51 20 56 15 69 -24 69 -28 0 -35 -4 -35 -19 0 -11 5 -21 12 -23 19 -7 0
-38 -23 -38 -20 0 -21 4 -17 45 7 57 22 75 65 75 27 0 34 4 31 18 -3 18 -48
27 -78 15z"/>
<path d="M4543 170 c0 -16 4 -30 9 -30 4 0 8 9 8 20 0 11 5 20 11 20 6 0 9 -9
6 -20 -3 -11 -1 -20 4 -20 5 0 9 6 9 13 0 7 3 8 8 2 4 -5 15 -11 25 -13 13 -2
17 4 17 28 0 16 -4 30 -10 30 -5 0 -10 -6 -10 -12 0 -9 -3 -9 -8 -3 -4 6 -21
12 -38 13 -28 2 -31 -1 -31 -28z"/>
</g>
</svg>
