<?xml version="1.0" encoding="utf-8"?>
<!-- Generator: Adobe Illustrator 20.1.0, SVG Export Plug-In . SVG Version: 6.00 Build 0)  -->
<svg version="1.1" id="Layer_1" xmlns="http://www.w3.org/2000/svg" xmlns:xlink="http://www.w3.org/1999/xlink" x="0px" y="0px"
	 viewBox="0 0 149 126.1" style="enable-background:new 0 0 149 126.1;" xml:space="preserve">
<style type="text/css">
	.st0{fill:#44697C;}
	.st1{fill:#FFFFFF;}
</style>
<g>
	<g id="XMLID_4_">
		<polygon class="st0" points="149,102.6 74.3,126.1 0,102.6 0,0 149,0 		"/>
	</g>
	<g>
		<g id="XMLID_30_">
			<g id="XMLID_50_">
				<path id="XMLID_93_" class="st1" d="M55.2,92.2V94h-0.5v-5.3H57c2.4,0,2.4,3.5,0,3.5H55.2z M55.2,91.7H57c1.6,0,1.6-2.5,0-2.5
					h-1.8V91.7z"/>
				<path id="XMLID_91_" class="st1" d="M60.1,90.2l0,0.6c0.2-0.5,0.7-0.7,1.2-0.7c0.3,0,0.6,0.1,0.8,0.3L62,90.9
					c-0.2-0.1-0.4-0.2-0.6-0.2c-0.6,0-1.2,0.5-1.2,1.2V94h-0.5v-3.7H60.1z"/>
				<path id="XMLID_88_" class="st1" d="M63.1,92.3c0.1,0.8,0.7,1.2,1.4,1.2c0.4,0,1-0.2,1.3-0.5l0.3,0.3c-0.4,0.5-1,0.7-1.6,0.7
					c-1.1,0-1.9-0.8-1.9-1.9c0-1.1,0.8-1.9,1.9-1.9c1.1,0,2,0.7,1.9,2.1H63.1z M65.9,91.9c0-0.8-0.6-1.3-1.4-1.3
					c-0.8,0-1.3,0.4-1.4,1.3H65.9z"/>
				<path id="XMLID_86_" class="st1" d="M69.9,94v-2.2c0-0.7-0.4-1.2-1.1-1.2c-0.7,0-1.1,0.5-1.1,1.2V94h-0.5v-3.7h0.5l0,0.6
					c0.2-0.5,0.7-0.6,1.2-0.6c0.5,0,1.1,0.2,1.3,0.8c0.2-0.6,0.8-0.8,1.3-0.8c0.9,0,1.6,0.6,1.6,1.6V94h-0.5v-2.2
					c0-0.7-0.4-1.1-1.1-1.1c-0.7,0-1.1,0.5-1.1,1.2V94H69.9z"/>
				<path id="XMLID_83_" class="st1" d="M74.7,88.7c0.2,0,0.4,0.1,0.4,0.4c0,0.2-0.2,0.4-0.4,0.4c-0.2,0-0.4-0.1-0.4-0.4
					C74.3,88.8,74.5,88.7,74.7,88.7z M74.9,90.2V94h-0.5v-3.7H74.9z"/>
				<path id="XMLID_81_" class="st1" d="M76.8,90.2v2.1c0,0.8,0.4,1.2,1.2,1.2c0.7,0,1.2-0.6,1.2-1.3v-2h0.5V94h-0.5l0-0.6
					c-0.3,0.5-0.8,0.7-1.3,0.7c-1,0-1.6-0.7-1.6-1.7v-2.1H76.8z"/>
				<path id="XMLID_79_" class="st1" d="M83.8,94v-2.2c0-0.7-0.4-1.2-1.1-1.2s-1.1,0.5-1.1,1.2V94h-0.5v-3.7h0.5l0,0.6
					c0.2-0.5,0.7-0.6,1.2-0.6c0.5,0,1.1,0.2,1.3,0.8c0.2-0.6,0.8-0.8,1.3-0.8c0.9,0,1.6,0.6,1.6,1.6V94h-0.5v-2.2
					c0-0.7-0.4-1.1-1.1-1.1s-1.1,0.5-1.1,1.2V94H83.8z"/>
				<path id="XMLID_77_" class="st1" d="M91.1,88.7v4.8H94V94h-3.5v-5.3H91.1z"/>
				<path id="XMLID_74_" class="st1" d="M95.3,88.7c0.2,0,0.4,0.1,0.4,0.4c0,0.2-0.2,0.4-0.4,0.4c-0.2,0-0.4-0.1-0.4-0.4
					C95,88.8,95.2,88.7,95.3,88.7z M95.6,90.2V94h-0.5v-3.7H95.6z"/>
				<path id="XMLID_71_" class="st1" d="M100.1,95.7v-2.5c-0.3,0.6-0.9,0.8-1.5,0.8c-1.1,0-1.9-0.7-1.9-1.9c0-1.2,0.8-1.9,1.8-1.9
					c0.7,0,1.2,0.3,1.5,0.8l0-0.8h0.5v5.5H100.1z M100,92.1c0-0.8-0.6-1.4-1.4-1.4c-0.8,0-1.4,0.5-1.4,1.4c0,0.9,0.6,1.4,1.4,1.4
					C99.4,93.5,100,92.9,100,92.1z"/>
				<path id="XMLID_69_" class="st1" d="M102.1,90.2v2.1c0,0.8,0.4,1.2,1.2,1.2c0.7,0,1.2-0.6,1.2-1.3v-2h0.5V94h-0.5l0-0.6
					c-0.3,0.5-0.8,0.7-1.3,0.7c-1,0-1.6-0.7-1.6-1.7v-2.1H102.1z"/>
				<path id="XMLID_66_" class="st1" d="M106.4,88.7c0.2,0,0.4,0.1,0.4,0.4c0,0.2-0.2,0.4-0.4,0.4c-0.2,0-0.4-0.1-0.4-0.4
					C106.1,88.8,106.3,88.7,106.4,88.7z M106.7,90.2V94h-0.5v-3.7H106.7z"/>
				<path id="XMLID_63_" class="st1" d="M111.5,88.7V94H111l0-0.7c-0.3,0.5-0.9,0.8-1.5,0.8c-1.1,0-1.9-0.7-1.9-1.9
					c0-1.2,0.8-1.9,1.9-1.9c0.6,0,1.2,0.2,1.5,0.8v-2.3H111.5z M108.2,92.1c0,0.9,0.6,1.4,1.4,1.4c0.8,0,1.4-0.6,1.4-1.5
					c0-0.9-0.6-1.4-1.4-1.4C108.8,90.7,108.2,91.2,108.2,92.1z"/>
				<path id="XMLID_61_" class="st1" d="M116.7,91.3l1.7-2.6h0.6v0l-2.1,3.1V94h-0.5v-2.1l-2-3.1v0h0.6L116.7,91.3z"/>
				<path id="XMLID_58_" class="st1" d="M119.1,92.3c0.1,0.8,0.7,1.2,1.4,1.2c0.4,0,1-0.2,1.3-0.5l0.3,0.3c-0.4,0.5-1,0.7-1.6,0.7
					c-1.1,0-1.9-0.8-1.9-1.9c0-1.1,0.8-1.9,1.9-1.9c1.1,0,2,0.7,1.9,2.1H119.1z M121.8,91.9c0-0.8-0.6-1.3-1.4-1.3s-1.3,0.4-1.4,1.3
					H121.8z"/>
				<path id="XMLID_55_" class="st1" d="M126.2,90.2h0.5V94h-0.5v-0.7c-0.3,0.5-0.9,0.8-1.5,0.8c-1.1,0-1.9-0.8-1.9-1.9
					c0-1.2,0.9-1.9,1.9-1.9c0.6,0,1.2,0.3,1.5,0.8V90.2z M123.4,92.1c0,0.9,0.6,1.5,1.4,1.5c1.9,0,1.9-2.9,0-2.9
					C124,90.6,123.4,91.2,123.4,92.1z"/>
				<path id="XMLID_53_" class="st1" d="M130.3,91c-0.4-0.3-0.7-0.4-1.1-0.4c-0.5,0-1,0.2-1,0.6c0,0.4,0.6,0.5,1,0.6
					c0.7,0.1,1.5,0.2,1.5,1.1c0,0.8-0.8,1.1-1.5,1.1c-0.6,0-1.3-0.2-1.6-0.7l0.3-0.3c0.3,0.4,0.9,0.6,1.3,0.6c0.4,0,1-0.1,1-0.6
					c0-0.5-0.5-0.6-1.1-0.7c-0.7-0.1-1.5-0.3-1.5-1c0-0.7,0.8-1.1,1.5-1.1c0.6,0,1,0.2,1.4,0.5L130.3,91z"/>
				<path id="XMLID_51_" class="st1" d="M132.5,89.1v1.1h1.2v0.4h-1.2v2.1c0,0.5,0.1,0.8,0.6,0.8c0.2,0,0.4-0.1,0.5-0.1l0.2,0.4
					c-0.2,0.1-0.5,0.2-0.7,0.2c-0.8,0-1.1-0.5-1.1-1.2v-2.1h-0.8v-0.4h0.8v-1.1L132.5,89.1z"/>
			</g>
			<path id="XMLID_47_" class="st1" d="M64.1,76.7c0.3,1.9,2.1,3.5,5.3,3.5c1.5,0,3.7-0.3,5.1-1.5l3.2,3.6c-2.1,2.1-5.4,2.9-8.4,2.9
				c-7.1,0-11-4.3-11-10.5c0-5.9,4-10.1,10.4-10.1c6.7,0,11.1,4.1,9.8,12.2H64.1z M73.4,72.5c-0.1-2.1-2.3-3.1-4.7-3.1
				c-2.3,0-4,1.2-4.6,3.1H73.4z"/>
			<path id="XMLID_44_" class="st1" d="M95.7,64.9h5.4v19.6h-5.2L95.6,82c-1.3,2.2-4.1,3.1-6,3.1c-5.9,0-10.1-3.9-10.1-10.4
				c0-6.5,4.5-10.4,10.3-10.2c2.5,0,4.7,1,5.8,2.7L95.7,64.9z M85.1,74.7c0,3.3,2.3,5.2,5.2,5.2c3.2,0,5.2-2.5,5.2-5
				c0-2.8-1.8-5.4-5.2-5.4C87.4,69.5,85.1,71.4,85.1,74.7z"/>
			<path id="XMLID_42_" class="st1" d="M115.4,70.5c-1.5-1-2.9-1.4-4.6-1.4c-1.9,0-2.8,0.7-2.8,1.6c0,1.1,1,1.7,2.9,1.7
				c3.8,0.1,8.5,0.9,8.5,6.3c0,3.1-2.3,6.5-8.6,6.5c-2.9,0-5.9-0.6-9.2-3.3l2.5-4c2.4,1.9,4.8,2.3,6.8,2.4c1.7,0,3-0.6,2.9-1.6
				c0-0.9-0.7-1.6-3.3-1.7c-3.7-0.1-8.2-1.7-8.2-6.3c0-4.4,4.2-6.3,8.5-6.3c3,0,5.4,0.8,7.5,2.5L115.4,70.5z"/>
			<path id="XMLID_40_" class="st1" d="M128.1,59.5V65h5v4.8h-5v7.5c0,2.1,1.2,2.6,2.2,2.6c0.7,0,1.7-0.2,2.4-0.5l1.3,4.8
				c-1.4,0.6-2.6,0.8-4.1,0.9c-4.2,0.2-7.5-1.7-7.5-7.8v-7.5h-3.5V65h3.5v-4.8L128.1,59.5z"/>
			<path id="XMLID_38_" class="st1" d="M30.6,64.9l3.8,12.5l1.3-4.4l2.7-8.1h6.4l-7.3,19.7h-5.7l-3.5-9.8l-3.5,9.8h-5.7l-7.2-19.7
				h6.4l2.7,8.1l1.3,4.4l3.8-12.5H30.6z"/>
			<path id="XMLID_36_" class="st1" d="M54.4,64.9l-4.8,12.3l-4.5-11.4l-2.9,8l4.4,10.1L42.2,94h6.2l12.3-29.1H54.4z"/>
			<g id="XMLID_31_">
				<path id="XMLID_35_" class="st1" d="M42.2,57.2L42.2,57.2C42.1,57.3,42.2,57.2,42.2,57.2z"/>
				<path id="XMLID_34_" class="st1" d="M66.1,44.6l0.5-0.6l0,0l0,0l-0.1,0l-0.7,0.3c0,0,0,0,0,0L65,45.2l0-0.6c0,0,0,0,0,0
					c0,0-0.1,0.1-0.1,0.1l-0.7,0.9c0,0,0,0,0,0l-1.3,0.6l0,0l-0.8,0.5c0,0,0,0,0,0l-0.7,2.2l0,0l0,0l1.2-1.5c0,0,0,0,0,0l1.2-0.3
					c0,0,0,0,0,0c0,0,1.6-1.2,1.7-1.3L66.1,44.6z"/>
				<path id="XMLID_33_" class="st1" d="M117,59.9l-1.9-0.9l-2.7-0.7l-1.4-0.3c-0.4-0.1-0.9-0.3-1.3-0.4l-5.4-1.7
					c-0.4-0.1-0.9-0.3-1.4-0.4l-1.4-0.4l-2.7-0.7l-5.4-3.1L90.9,49l0,0l-0.6-0.4l-1.8-0.9l-2.1-1.5l-1.2-0.7l-1.4-0.6l-2.2-1.2
					L81,42l0-0.1l-0.1-0.1l-0.4-0.3l-0.1-0.1l-0.1,0l-4.8-1.8c0,0-2.6-2.1-2.7-2.1c-0.1,0-0.6-0.1-0.9-0.1c-0.3,0-3.2-0.5-3.3-0.5
					c-0.1,0-1.2,0.7-1.4,0.8c-0.1,0.1-2.1,2.5-2.1,2.5l-4.6,4.1L56.4,47c0,0-3.1,1.4-3.2,1.5c-0.1,0-3.6,1-3.6,1s-3.5,1-3.5,1
					c-0.1,0-2-0.2-2.3-0.2c-0.3,0-12.7,3.6-12.7,3.6l0,0l0,0l-8.7,3.6l-4.7,0.8l-2.4,0.4c-0.4,0.1-1.6,0.2-2,0.2L12.7,59
					c0,0-0.6,0.3-0.6,0.3c0,0,0.4,0,1.2-0.2l4.2-0.5l1.8-0.1l2.8-0.4l0,0l0,0l2.6-1l2.1-0.9l2.6-1.1l1.5-0.4l2.8-0.6l4.6-1.4
					l4.9-1.2l0.1,0.1l-0.1,0.8l-0.1,0.7l0,0.3L43,53.6c0,0-1.4,0.5-1.4,0.6c-0.1,0.1-0.4,0.6-0.4,0.6c0,0,0,0.1-0.1,0.1
					c-0.3,0.1-2,0.6-2.2,0.7c-0.2,0.1-1,1.1-1,1.1s1.3,0.2,1.3,0.2c0,0-0.1,0.6-0.1,0.7c0,0-1.5,0.5-1.5,0.5l-0.9,0.3l-0.2,0.1
					c0,0,0.2,0.1,0.2,0.1c0,0,1.8,0,1.9,0c0,0,0,0,0,0c0,0,1.4,0.4,1.5,0.4c0.1,0,1.9-1.5,2-1.5c0,0,0,0,0,0
					c0.1-0.1,0.5-0.6,0.5-0.6l0,0l0,0l0,0c0.1-0.1,0.6-0.5,0.7-0.6c0,0,1-0.2,1.9-0.3L47,56l0.2,0l0.1-0.1l1.2-0.7c0,0,0,0,0,0
					l2.9-0.7c0,0,0,0,0,0c0,0,0.1,0,0.1,0l1.5-0.8l-1.6,0.5c0,0,0,0,0,0l-3.1,0.2l0,0l-0.1,0l-1.1,0.4c0,0,0,0-0.1,0l-0.6-0.1
					c0-0.3,0-0.7,0-0.7c0-0.1,1.8-1.2,1.8-1.2l6.6-1.4l0.9-1.1l4.4-2.7c0,0,0,0,0,0c0,0,1.1-1.2,1.8-2c0.3-0.2,0.7-0.5,0.7-0.5
					c-0.2,0.1-0.9,0.4-0.9,0.4l-2,1.3c0,0,0,0,0,0l-2.7,0.8l4-2.6l0,0l0,0l4.7-4.1l0,0l0,0c0,0,1.7-2.1,2-2.4l0,0c0,0,0.9-0.6,1-0.6
					c0,0,0.1,0,0.2,0c0,0.5,0,1.8,0,2.5c0,0.3,0,0.4,0,0.5c0,0-0.7,1.9-1.1,3l-1,0.9c0,0-0.1,0.1-0.1,0.1c0,0,0,0.1,0,0.1
					s-0.2,1.4-0.3,1.4c0,0-1,1.1-1,1.1l1.3-0.9c0,0,0,0,0,0c0,0,0-0.1,0-0.1s0.5-1.2,0.5-1.3c0,0,0.6-0.4,1.3-0.7
					c0.2-0.1,1.1-0.3,1.5-0.4c0.5,0.2,2.3,0.8,2.4,0.9c0,0.1-0.5,2-0.5,2c0,0,0,0.1-0.1,0.2l0,0l0,0l-1.1,1.3l-0.1,0.1l0,0.1
					c0,0-0.5,2.3-0.6,2.3c0,0-1.6,0.5-1.6,0.5s-0.1,0-0.2,0.1c0,0,0,0.1,0,0.1s-0.8,1.9-0.7,1.8c0,0,1.1-1.4,1.2-1.4
					c0,0,1.8-0.5,1.8-0.5s0.2,0,0.2-0.1c0,0,0.1-0.2,0.1-0.2l0.3-1c0.4,0.6,0.9,1.3,0.9,1.4c0.1,0.1,1.4,1.3,1.5,1.4
					c0.1,0.1,0.6,1.3,0.7,1.4c0.1,0.1,2.3,0.7,2.4,0.7c0.1,0,1.4-2.1,1.5-2.2c0.1-0.1,3.2-0.6,3.3-0.6c0.1,0,5.2,0.8,5.3,0.8
					c0.1,0,1.5-1.7,1.6-1.7c0.1,0,1.4,0,2.7,0.1c0.2,0.1,0.4,0.2,0.6,0.2c0.2,0.3,0.5,0.6,0.7,0.8c0.3,0.3,0.4,0.5,0.4,0.5
					c0,0-1.2,0.3-1.8,0.4l-1.3,0.6l-0.6,0.2c0,0-0.2,0-0.2,0.1c0,0-0.1,0.1-0.1,0.1L88,56.7l-0.5,0.6l0.7-0.4l0,0l0,0l1.2-1.6
					c0,0,0,0,0.1,0l2.7,0l0,0l2,0.8c0,0,1.4,1.3,1.5,1.3s1,0.3,1.1,0.3c0.2,0,2.1-0.1,2.1-0.1l1.1,0.5l1,0.5l3.1,0.9l0.5,0.4
					c0,0,0.1-1.1,0.1-1.2c0-0.1-0.8-1.4-0.9-1.4c-0.1-0.1-1.1-0.8-1.6-1.1l0.6,0.2c0.3,0.1,0.5,0.1,0.8,0.2c0.4,0.2,0.8,0.3,0.9,0.3
					c0.2,0.1,2.1,1.4,2.8,1.7c0.7,0.4,3.3,1.5,3.7,1.6c0.1,0.1,3.1,0.4,3.1,0.4s-3.3-1.1-3.4-1.2c-0.1-0.1-0.8-0.9-1-1.2
					c0.4,0.1,0.8,0.2,1.2,0.3l1.4,0.3l2.3,0.5l2.8,0.9l3,0.2l-2-0.4L117,59.9z"/>
				<polygon id="XMLID_32_" class="st1" points="31.2,54.5 31.2,54.5 31.2,54.5 				"/>
			</g>
		</g>
		<g>
			<path class="st1" d="M135.4,65.8h-0.7v-0.6h2.2v0.6h-0.7v1.9h-0.7V65.8z"/>
			<path class="st1" d="M139.3,66.2l-0.6,0.8h-0.1l-0.6-0.8v1.5h-0.7v-2.5h0.7l0.7,0.8l0.7-0.8h0.7v2.5h-0.7V66.2z"/>
		</g>
	</g>
</g>
</svg>
